<svg id="visual" viewBox="0 0 1920 1080" width="1920" height="1080" xmlns="http://www.w3.org/2000/svg" xmlns:xlink="http://www.w3.org/1999/xlink" version="1.1"><rect x="0" y="0" width="1920" height="1080" fill="#FFF"></rect><path d="M0 868L45.7 865.7C91.3 863.3 182.7 858.7 274.2 843.5C365.7 828.3 457.3 802.7 548.8 782.2C640.3 761.7 731.7 746.3 823 764.7C914.3 783 1005.7 835 1097 830.3C1188.3 825.7 1279.7 764.3 1371.2 754.2C1462.7 744 1554.3 785 1645.8 811.7C1737.3 838.3 1828.7 850.7 1874.3 856.8L1920 863L1920 1081L1874.3 1081C1828.7 1081 1737.3 1081 1645.8 1081C1554.3 1081 1462.7 1081 1371.2 1081C1279.7 1081 1188.3 1081 1097 1081C1005.7 1081 914.3 1081 823 1081C731.7 1081 640.3 1081 548.8 1081C457.3 1081 365.7 1081 274.2 1081C182.7 1081 91.3 1081 45.7 1081L0 1081Z" fill="#316b61" stroke-linecap="round" stroke-linejoin="miter"></path></svg>